<svg width="116" height="8" viewBox="0 0 116 8" fill="none" xmlns="http://www.w3.org/2000/svg">
<path d="M0 7.79102H7.37598V6.68359H0V7.79102ZM7.73773 7.79102H15.1137V6.68359H7.73773V7.79102ZM17.1845 6.0957C17.622 6.0957 17.9637 5.75391 17.9637 5.31641C17.9637 4.87891 17.622 4.53711 17.1845 4.53711C16.747 4.53711 16.4052 4.87891 16.4052 5.31641C16.4052 5.75391 16.747 6.0957 17.1845 6.0957ZM19.2484 7.79102H26.6243V6.68359H19.2484V7.79102ZM26.9861 7.79102H34.3621V6.68359H26.9861V7.79102ZM36.4328 6.0957C36.8703 6.0957 37.2121 5.75391 37.2121 5.31641C37.2121 4.87891 36.8703 4.53711 36.4328 4.53711C35.9953 4.53711 35.6535 4.87891 35.6535 5.31641C35.6535 5.75391 35.9953 6.0957 36.4328 6.0957ZM38.4967 7.79102H45.8727V6.68359H38.4967V7.79102ZM46.2345 7.79102H53.6104V6.68359H46.2345V7.79102ZM55.107 2.0625H60.107V0.796875H55.107V2.0625ZM61.6766 7.79102H69.0526V6.68359H61.6766V7.79102ZM69.4144 7.79102H76.7904V6.68359H69.4144V7.79102ZM78.8611 6.0957C79.2986 6.0957 79.6404 5.75391 79.6404 5.31641C79.6404 4.87891 79.2986 4.53711 78.8611 4.53711C78.4236 4.53711 78.0818 4.87891 78.0818 5.31641C78.0818 5.75391 78.4236 6.0957 78.8611 6.0957ZM80.925 7.79102H88.301V6.68359H80.925V7.79102ZM88.6627 7.79102H96.0387V6.68359H88.6627V7.79102ZM98.1095 6.0957C98.547 6.0957 98.8887 5.75391 98.8887 5.31641C98.8887 4.87891 98.547 4.53711 98.1095 4.53711C97.672 4.53711 97.3302 4.87891 97.3302 5.31641C97.3302 5.75391 97.672 6.0957 98.1095 6.0957ZM100.173 7.79102H107.549V6.68359H100.173V7.79102ZM107.911 7.79102H115.287V6.68359H107.911V7.79102Z" fill="#ADBFDF"/>
</svg>
